<mxfile host="Electron" type="device" pages="2">
  <diagram name="main" id="vXeUWlEQ6jjaBp5v4xXl">
    <mxGraphModel dx="1022" shadow="0">
      <root>
        <mxCell id="0" />
        <mxCell id="1" parent="0" />
        <mxCell id="frVkl_TaBd00IkZIY_ho-7"  target="frVkl_TaBd00IkZIY_ho-4">
          <mxGeometry relative="1" as="geometry" />
        </mxCell>
      </root>
    </mxGraphModel>
  </diagram>
</mxfile>
